<svg height='100px' width='100px'  fill="#000000" xmlns="http://www.w3.org/2000/svg" xmlns:xlink="http://www.w3.org/1999/xlink" version="1.0" x="0px" y="0px" viewBox="0 0 32 32" enable-background="new 0 0 32 32" xml:space="preserve"><path d="M32,28v4H0v-4H32z M31.441,0.555c0.738,0.74,0.738,1.939,0,2.682L19.373,15.305c0.42,0.818,0.68,1.736,0.68,2.721  c0,3.314-2.686,6-6,6s-6-2.686-6-6c0-0.965,0.25-1.865,0.654-2.674L0.611,7.256c-0.738-0.74-0.738-1.941,0-2.682  c0.74-0.738,1.941-0.738,2.682,0l8.098,8.1c0.805-0.402,1.701-0.648,2.662-0.648c0.941,0,1.82,0.236,2.613,0.623L28.76,0.555  C29.5-0.186,30.701-0.186,31.441,0.555z M15.902,18.773L15.9,18.775c0.096-0.23,0.152-0.484,0.152-0.75c0-1.105-0.895-2-2-2  s-2,0.895-2,2c0,0.215,0.059,0.41,0.121,0.604c0.041,0.111,0.082,0.225,0.139,0.328c0.338,0.627,0.977,1.068,1.74,1.068  C14.893,20.025,15.605,19.506,15.902,18.773z"></path></svg>